<svg width="79" height="94" viewBox="0 0 79 94" fill="none" xmlns="http://www.w3.org/2000/svg">

<path id="Vector" fill-rule="evenodd" clip-rule="evenodd" d="M67.5209 93.7727C66.8862 93.8404 66.0382 93.9237 65.4242 93.7466C66.6833 92.2983 71.5323 91.4231 71.7716 83.9526C71.808 82.7961 71.5843 74.2627 71.9225 73.5959C72.6613 73.0541 73.7486 73.0854 74.6123 73.299C75.195 73.4448 75.1066 73.9085 75.1378 74.4294C75.2835 76.5498 75.3459 84.4735 74.9505 86.5991C74.1597 90.8397 71.5843 93.1736 67.5209 93.7779V93.7727ZM7.90252 5.49091H12.5954V10.6692H17.767V15.3683H12.5954V20.5466H7.90252V15.3683H2.73098V10.6692H7.90252V5.49091ZM29.4211 0H34.114V5.17833H39.2856V9.87739H34.114V15.0557H29.4211V9.87739H24.2496V5.17833H29.4211V0ZM65.1121 73.3094C65.367 73.3042 66.3555 73.2573 66.5116 73.4813C66.7926 73.8772 66.6937 84.8434 66.522 85.9531C66.0694 88.6933 64.1392 91.3398 61.6887 92.6786C58.4265 94.4239 55.258 93.9342 51.7098 93.9342L9.28646 93.9446C4.74965 93.929 0.545823 91.121 0.0203447 87.0679C0.764339 87.4118 1.8309 88.6933 2.7622 89.3185C5.50405 91.1522 8.56328 90.7928 11.7005 90.7824C24.3432 90.7563 36.9703 90.7615 49.6078 90.7615C55.3361 90.7615 59.67 91.6003 62.3182 87.3492C64.2016 84.3225 62.6304 73.7835 63.3691 73.3927C63.6397 73.2521 64.7479 73.3094 65.1121 73.3094ZM59.1913 54.6695C64.5554 54.6747 70.0911 54.8153 75.4343 54.5913C78.1346 54.4767 78.0877 55.2894 77.9837 57.8265C77.427 71.1682 80.5278 69.3918 70.8351 69.3449C63.8998 69.3136 56.9437 69.4126 50.0137 69.3605C40.8048 69.2928 40.0972 61.0773 43.3749 57.1388C45.7474 54.2892 48.9003 54.5861 52.2456 54.5965C54.5609 54.6017 56.8761 54.659 59.1965 54.659L59.1913 54.6695ZM71.8288 50.2934C71.5167 49.2307 71.756 38.1811 71.7092 35.8107C71.5167 27.2358 62.5211 26.9336 66.1422 26.9023C69.4876 26.8763 72.115 27.8036 73.9776 30.747C75.7049 33.6175 75.2626 36.8995 75.2835 40.1087L75.2626 50.1788C75.0649 50.6372 72.089 50.5018 71.8236 50.2934H71.8288ZM0.0463585 44.7452L0.0671696 37.7018C1.03488 37.4101 2.44483 38.1551 2.84024 36.9673C4.41668 32.2318 7.44468 32.5131 12.2728 32.6173C12.7983 32.6277 11.6433 33.6227 11.5184 33.7582C8.53206 36.8787 5.63932 39.9211 2.71537 43.1042C0.145211 45.9017 0.134805 45.7559 0.0463585 44.7452ZM21.2372 32.4974C21.3308 32.4089 21.6326 32.1067 21.7471 32.0494C21.9188 32.0755 26.4868 36.6599 26.6637 37.061C26.7157 37.7174 25.3942 38.5927 24.9208 39.0459C21.9448 41.8851 19.0416 45.1099 16.1437 48.0793C13.0272 51.2728 2.89227 61.2023 0.72792 64.1926C0.504201 64.5 0.379335 64.6615 0.0723723 64.8855C0.202441 63.1403 -0.114927 54.9247 0.166022 54.2683C0.842381 52.9711 18.8803 34.7845 21.2424 32.5026L21.2372 32.4974ZM47.9065 50.4132C43.1148 51.0227 41.1325 52.57 38.5676 56.4043C37.1628 58.5089 36.8507 62.7912 37.5635 65.2137C38.2294 67.4694 40.118 70.1107 42.0638 71.4287C47.3394 74.9348 56.4235 72.5905 60.1799 73.3094C61.0903 73.4813 60.6741 83.0305 60.0082 84.609C58.156 88.9955 54.6389 88.1463 50.7577 88.1411L11.6433 88.2036C8.44881 88.188 5.50405 88.5318 3.49579 85.4738C2.54368 84.0203 3.23045 83.3535 1.4511 83.4681C-0.375065 83.5827 0.0463585 83.515 0.0463585 78.446C0.0463585 73.6741 -0.51554 75.1848 2.27314 72.1841L12.1532 61.7337L24.5305 48.8972C26.4452 46.8082 28.5263 44.8754 30.4773 42.8072C31.5855 41.6351 31.8404 42.229 32.9174 43.3542C35.6072 46.157 35.3471 45.0734 38.2346 42.1925C39.5353 40.8953 47.2718 32.8829 47.8077 32.7058C48.4945 32.5443 55.8147 32.5443 57.0738 33.0132C61.6626 34.7219 60.5805 39.5304 60.6273 45.1567C60.6325 45.7142 60.7313 50.0954 60.492 50.2465L47.9065 50.4132ZM50.7941 29.4863C51.2259 28.8716 52.9844 26.944 53.7701 26.8815C54.2487 26.845 55.3569 26.9075 55.9136 26.9075C59.1861 26.8919 62.0008 27.2305 64.3265 29.8197C65.9081 31.5806 66.5428 33.6435 66.6521 35.9462C66.8134 40.1972 66.6625 44.5837 66.7145 48.866C66.7301 50.3455 66.4596 50.2674 64.956 50.2517C62.7864 50.2257 63.3067 51.0332 63.3015 45.3703C63.3015 42.5884 63.3691 39.6242 63.2911 36.8683C63.0154 27.1993 51.6265 30.2261 50.8461 29.6374L50.7837 29.5749L50.7941 29.4863ZM65.289 2.18803C65.7 2.96947 61.4285 22.0105 60.9186 25.626C60.773 26.6471 60.6741 26.4387 59.9301 25.7093C57.6097 23.4223 55.3777 21.052 53.1093 18.7129C44.6756 27.2305 46.2989 25.5791 37.9172 34.1437C37.5166 34.5552 35.4876 36.837 35.0661 36.8006L26.6116 28.1631C26.0289 27.491 26.0133 27.2462 25.4358 27.7932C22.72 30.4553 24.5462 29.7311 17.3195 29.7155C14.3539 29.7051 7.89212 29.3665 5.33756 30.1219C3.12119 30.7783 1.77367 32.0859 0.48339 33.9405C-0.265807 35.0137 0.72792 31.9921 0.738325 31.9608C3.69349 24.3548 14.1042 27.9547 16.5755 26.6835C16.8357 26.5533 25.3942 17.077 26.2058 17.0406C26.9498 17.0041 34.5823 25.5426 35.0401 25.4801C35.2742 25.4489 39.9983 20.5414 40.6331 19.9111L46.7307 14.2013C48.0574 12.9927 48.5309 14.2326 41.9026 8.0384C41.2158 7.39241 42.0118 7.35074 42.6934 7.17882C44.6704 6.68912 65.06 1.75042 65.2838 2.1724L65.289 2.18803ZM8.9951 87.094L8.95868 86.125C5.34277 86.4115 5.13986 84.8747 5.05141 84.7757C5.0306 84.7601 4.23458 84.833 4.14613 84.8434C4.87972 87.1721 6.92441 87.0575 8.9899 87.0888L8.9951 87.094ZM53.9417 86.9637L53.9782 85.9948C57.8126 86.2761 57.9843 84.8434 58.1716 84.6455C58.1924 84.6298 59.0509 84.7028 59.1445 84.7132C58.3485 87.0679 56.0905 86.9325 53.9417 86.9585V86.9637ZM59.2954 38.7698L58.3277 38.7958C58.3693 34.998 56.9177 34.9147 56.72 34.748C56.7044 34.7271 56.7252 33.878 56.7252 33.7842C59.1185 34.4198 59.1289 36.6391 59.2954 38.7698ZM1.32624 76.0757C2.59571 76.0757 2.22631 75.3776 2.22631 79.9412H1.2586L1.32624 76.0757ZM58.3953 75.0911C59.6648 75.0911 59.2954 74.393 59.2954 78.9566H58.3277L58.3953 75.0911ZM58.3953 79.9256C59.6648 79.9256 59.2954 79.2275 59.2954 83.7911H58.3277L58.3953 79.9256ZM58.3953 39.2282C59.6648 39.2282 59.2954 38.5301 59.2954 43.0938H58.3277L58.3953 39.2282ZM58.3953 44.2503C59.6648 44.2503 59.2954 43.5522 59.2954 48.1158H58.3277L58.3953 44.2503ZM47.6984 34.5917C47.6984 33.3206 47.0013 33.6904 51.5589 33.6904V34.6594L47.6984 34.5917ZM52.0479 34.5917C52.0479 33.3206 51.3508 33.6904 55.9084 33.6904V34.6594L52.0479 34.5917ZM9.28646 87.0315C9.28646 85.7603 8.58929 86.1302 13.1469 86.1302V87.0992L9.28646 87.0315ZM14.6661 87.0315C14.6661 85.7603 13.9689 86.1302 18.5266 86.1302V87.0992L14.6661 87.0315ZM19.5307 87.0315C19.5307 85.7603 18.8335 86.1302 23.3911 86.1302V87.0992L19.5307 87.0315ZM24.3901 87.0315C24.3901 85.7603 23.6929 86.1302 28.2505 86.1302V87.0992L24.3901 87.0315ZM28.8748 87.0315C28.8748 85.7603 28.1777 86.1302 32.7353 86.1302V87.0992L28.8748 87.0315ZM33.6822 87.0315C33.6822 85.7603 32.985 86.1302 37.5426 86.1302V87.0992L33.6822 87.0315ZM38.3283 87.0315C38.3283 85.7603 37.6311 86.1302 42.1887 86.1302V87.0992L38.3283 87.0315ZM43.786 87.0315C43.786 85.7603 43.0888 86.1302 47.6464 86.1302V87.0992L43.786 87.0315ZM48.7754 87.0315C48.7754 85.7603 48.0782 86.1302 52.6359 86.1302V87.0992L48.7754 87.0315ZM1.33144 55.477C2.60091 55.477 2.23152 54.7789 2.23152 59.3425H1.2638L1.33144 55.477ZM1.33144 38.4468C2.60091 38.4468 2.23152 37.7487 2.23152 42.3123H1.2638L1.33144 38.4468ZM48.7286 57.9463C54.0146 57.9463 54.0146 65.9899 48.7286 65.9899C43.4426 65.9899 43.4426 57.9463 48.7286 57.9463Z" fill="white"/>
</svg>
